<svg width="774" height="774" viewBox="0 0 774 774" fill="none" xmlns="http://www.w3.org/2000/svg">
  <g clip-path="url(#clip0)">
    <path fill-rule="evenodd" clip-rule="evenodd" d="M224.261 35.6535C273.608 12.7737 328.578 0 386.51 0C576.28 0 734.291 137.063 766.863 317.51C728.465 271.899 682.019 233.283 629.722 203.857C557.807 163.392 474.834 140.298 386.51 140.298C309.396 140.298 236.363 157.901 171.207 189.297C179.822 134.295 198.106 82.4834 224.261 35.6535Z" fill="#00B8D4"/>
    <path fill-rule="evenodd" clip-rule="evenodd" d="M772.957 379.76C772.996 382.019 773.015 384.282 773.015 386.55C773.015 599.868 599.827 773.056 386.51 773.056C337.767 773.056 291.121 764.014 248.156 747.518C300.571 736.203 349.924 716.611 394.771 690.182C541.463 603.738 639.97 444.12 639.97 261.679C639.97 257.123 639.909 252.582 639.787 248.055C692.578 282.494 737.95 327.376 772.957 379.76Z" fill="#00B8D4"/>
    <path fill-rule="evenodd" clip-rule="evenodd" d="M196.42 723.031C79.1855 656.622 0 530.729 0 386.487C0 251.588 69.2591 132.739 174.125 63.5859C153.406 111.178 139.922 162.633 135.066 216.559L135.065 216.577C133.728 231.412 133.045 246.434 133.045 261.615C133.045 434.005 220.998 586.018 354.448 675.174C306.066 699.989 252.769 716.561 196.42 723.031Z" fill="#00B8D4"/>
  </g>
  <defs>
    <clipPath id="clip0">
      <rect width="773.391" height="773.391" fill="white"/>
    </clipPath>
  </defs>
</svg>
